<svg xmlns="http://www.w3.org/2000/svg" version="1.1" xmlns:xlink="http://www.w3.org/1999/xlink" viewBox="0 0 14.332625551923458 3.726631523144812"><g transform="matrix(1,0,0,1,3.106021820129686,1.252065761572406)"><g clip-path="url(#SvgjsClipPath1001)"><g clip-path="url(#SvgjsClipPath100063a3e32c-fa49-43b8-9940-52140e91a7dc)"><path d=" M -0.5941362954384106 0.7447790688774142 L -0.69072151704956 0.6481938472662644 L -0.69072151704956 0.9205641722097063 L -0.5941362954384106 1.0171493938208558 L -0.5941362954384106 1.8934188168880106 L -0.3999999999999999 1.8934188168880106 L -0.3999999999999999 0.9365007337755461 L -0.40120731527013964 0.9365007337755461 Z" fill="#006fbf" transform="matrix(1,0,0,1,0,0)" fill-rule="nonzero"></path></g><g clip-path="url(#SvgjsClipPath100063a3e32c-fa49-43b8-9940-52140e91a7dc)"><path d=" M -2.234394821449758 1.3131830980590298 L -2.3307385800068796 1.3131830980590298 L -2.3307385800068796 0.19858964066636364 L -2.52487487544529 0.39151862083463473 L -2.52487487544529 1.5073193934974394 L -2.234394821449758 1.5073193934974394 Z" fill="#006fbf" transform="matrix(1,0,0,1,0,0)" fill-rule="nonzero"></path></g><g clip-path="url(#SvgjsClipPath100063a3e32c-fa49-43b8-9940-52140e91a7dc)"><path d=" M -0.5941362954384106 0.19858964066636364 L -0.7870652756066816 0.004453345227952821 L -0.9799942557749532 -0.18847563494031833 L -1.1729232359432245 -0.38140461510858964 L -1.188859797509064 -0.39734117667442925 L -1.3262522752509243 -0.26115601420270845 L -1.3658522161114954 -0.22131461028810923 L -1.3970009500810912 -0.1904073393725414 L -1.2605743245553425 -0.053980713846792594 L -1.188859797509064 -0.12497085173098743 L -1.1729232359432245 -0.10806843794903631 L -0.9799942557749532 0.08486054221923478 L -0.7870652756066816 0.2777895223875061 L -0.5941362954384106 0.4707185025557771 L -0.3999999999999999 0.6636474827240487 L -0.3999999999999999 0.39151862083463473 Z" fill="#006fbf" transform="matrix(1,0,0,1,0,0)" fill-rule="nonzero"></path></g><g clip-path="url(#SvgjsClipPath100063a3e32c-fa49-43b8-9940-52140e91a7dc)"><path d=" M -1.9448806196703372 0.08510200527326284 L -1.7519516395020658 -0.10782697489500848 L -1.6473981371079964 -0.2133463295051894 L -1.5587811962797666 -0.3007559550632797 L -1.4621959746686173 -0.39734117667442925 L -1.3260108121968963 -0.5347336544162895 L -1.3658522161114954 -0.5743335952768608 L -1.462437437722645 -0.6709188168880104 L -2.137809599838608 0.004453345227952821 L -2.137809599838608 0.41518200012936635 L -1.9448806196703372 0.22225301996109503 Z" fill="#006fbf" transform="matrix(1,0,0,1,0,0)" fill-rule="nonzero"></path></g><g clip-path="url(#SvgjsClipPath100063a3e32c-fa49-43b8-9940-52140e91a7dc)"><path d=" M -0.9799942557749532 1.700248373665711 L -2.52487487544529 1.700248373665711 L -2.52487487544529 1.8934188168880106 L -0.7870652756066816 1.8934188168880106 L -0.7870652756066816 1.6039046151085894 L -0.9799942557749532 1.6039046151085894 Z" fill="#006fbf" transform="matrix(1,0,0,1,0,0)" fill-rule="nonzero"></path></g><g clip-path="url(#SvgjsClipPath100063a3e32c-fa49-43b8-9940-52140e91a7dc)"><path d=" M -0.9799942557749532 0.35771379327073227 L -1.0876867778713848 0.2500212711743006 L -1.3260108121968965 0.011455773794761148 L -1.462437437722645 -0.12472938867695971 L -1.5112129746362757 -0.07595385176332914 L -1.5590226593337946 -0.028385630119837857 L -1.6937590434813483 0.10635075402771565 L -1.9448806196703372 0.35747233021670455 L -2.1378095998386084 0.550401310384976 L -2.1378095998386084 1.5073193934974403 L -0.787065275606682 1.5073193934974403 L -0.787065275606682 0.551608625655115 L -0.7984140391459922 0.5392940098996933 L -0.9799942557749532 0.35771379327073227 Z M -0.9799942557749532 1.3131830980590298 L -0.9799942557749532 1.3131830980590298 L -1.9448806196703372 1.3131830980590298 L -1.9448806196703372 0.6310499704302858 L -1.7519516395020658 0.43812099026201456 L -1.5590226593337946 0.24519201009374336 L -1.462437437722645 0.1486067884825939 L -1.3658522161114954 0.24519201009374336 L -1.1729232359432245 0.43812099026201456 L -0.9799942557749532 0.6310499704302858 L -0.9799942557749532 1.3131830980590298 Z" fill="#0094ff" transform="matrix(1,0,0,1,0,0)" fill-rule="nonzero"></path></g><g clip-path="url(#SvgjsClipPath100063a3e32c-fa49-43b8-9940-52140e91a7dc)"><path d=" M -1.7703028316081844 0.7034888866386478 L -1.7703028316081844 1.1388467730509042 L -1.1545720438371059 1.1388467730509042 L -1.1545720438371059 0.7034888866386478 L -1.462437437722645 0.3956234927531085 Z" fill="#cccccc" transform="matrix(1,0,0,1,0,0)" fill-rule="nonzero"></path></g></g><g><path d=" M 0.09 0.573 Q 0.14400000000000002 0.4754999999999999 0.24075 0.42299999999999993 Q 0.3375 0.37049999999999994 0.462 0.37049999999999994 Q 0.6225 0.37049999999999994 0.732 0.45824999999999994 Q 0.8415 0.5459999999999999 0.873 0.7034999999999999 L 0.561 0.7034999999999999 Q 0.534 0.6209999999999999 0.456 0.6209999999999999 Q 0.4005 0.6209999999999999 0.36825 0.66675 Q 0.336 0.7124999999999999 0.336 0.8009999999999999 Q 0.336 0.8895 0.36825 0.9359999999999999 Q 0.4005 0.9824999999999999 0.456 0.9824999999999999 Q 0.5355 0.9824999999999999 0.561 0.8999999999999999 L 0.873 0.8999999999999999 Q 0.8415 1.0559999999999998 0.732 1.1444999999999999 Q 0.6225 1.2329999999999999 0.462 1.2329999999999999 Q 0.3375 1.2329999999999999 0.24075 1.1804999999999999 Q 0.14400000000000002 1.128 0.09 1.0305 Q 0.036000000000000004 0.9329999999999999 0.036000000000000004 0.8009999999999999 Q 0.036000000000000004 0.6704999999999999 0.09 0.573 M 1.1587419433593749 1.1804999999999999 Q 1.0589919433593749 1.128 1.001991943359375 1.0305 Q 0.944991943359375 0.9329999999999999 0.944991943359375 0.8009999999999999 Q 0.944991943359375 0.6704999999999999 1.002741943359375 0.573 Q 1.060491943359375 0.4754999999999999 1.160241943359375 0.42299999999999993 Q 1.259991943359375 0.37049999999999994 1.385991943359375 0.37049999999999994 Q 1.511991943359375 0.37049999999999994 1.611741943359375 0.42299999999999993 Q 1.711491943359375 0.4754999999999999 1.7692419433593751 0.573 Q 1.826991943359375 0.6704999999999999 1.826991943359375 0.8009999999999999 Q 1.826991943359375 0.9315 1.7692419433593751 1.02975 Q 1.711491943359375 1.128 1.610991943359375 1.1804999999999999 Q 1.510491943359375 1.2329999999999999 1.384491943359375 1.2329999999999999 Q 1.2584919433593749 1.2329999999999999 1.1587419433593749 1.1804999999999999 M 1.487241943359375 0.9322499999999999 Q 1.5284919433593749 0.8864999999999998 1.5284919433593749 0.8009999999999999 Q 1.5284919433593749 0.7154999999999999 1.487241943359375 0.6704999999999999 Q 1.4459919433593749 0.6255 1.385991943359375 0.6255 Q 1.325991943359375 0.6255 1.285491943359375 0.6704999999999999 Q 1.244991943359375 0.7154999999999999 1.244991943359375 0.8009999999999999 Q 1.244991943359375 0.8879999999999999 1.283991943359375 0.9329999999999999 Q 1.322991943359375 0.978 1.384491943359375 0.978 Q 1.4459919433593749 0.978 1.487241943359375 0.9322499999999999 M 2.726971435546875 0.47024999999999995 Q 2.812471435546875 0.567 2.812471435546875 0.732 L 2.812471435546875 1.2225 L 2.518471435546875 1.2225 L 2.518471435546875 0.7709999999999999 Q 2.518471435546875 0.699 2.480971435546875 0.65775 Q 2.4434714355468747 0.6164999999999999 2.380471435546875 0.6164999999999999 Q 2.3144714355468747 0.6164999999999999 2.276971435546875 0.65775 Q 2.239471435546875 0.699 2.239471435546875 0.7709999999999999 L 2.239471435546875 1.2225 L 1.945471435546875 1.2225 L 1.945471435546875 0.3809999999999999 L 2.239471435546875 0.3809999999999999 L 2.239471435546875 0.5009999999999999 Q 2.2784714355468747 0.44399999999999995 2.344471435546875 0.40874999999999995 Q 2.410471435546875 0.37349999999999994 2.495971435546875 0.37349999999999994 Q 2.641471435546875 0.37349999999999994 2.726971435546875 0.47024999999999995 M 3.1281826171875 1.19475 Q 3.0389326171874997 1.1564999999999999 2.9871826171875 1.08975 Q 2.9354326171875 1.023 2.9294326171875 0.9389999999999998 L 3.2144326171874997 0.9389999999999998 Q 3.2204326171875 0.9794999999999999 3.2519326171875 1.002 Q 3.2834326171874997 1.0245 3.3299326171874997 1.0245 Q 3.3659326171874997 1.0245 3.3869326171875 1.0094999999999998 Q 3.4079326171875 0.9944999999999999 3.4079326171875 0.9704999999999999 Q 3.4079326171875 0.9389999999999998 3.3734326171875 0.9239999999999999 Q 3.3389326171875 0.9089999999999999 3.2594326171874997 0.8909999999999999 Q 3.1694326171875 0.8729999999999999 3.1094326171874997 0.8504999999999999 Q 3.0494326171874997 0.8279999999999998 3.0051826171875 0.7769999999999999 Q 2.9609326171875 0.726 2.9609326171875 0.6389999999999999 Q 2.9609326171875 0.564 3.0014326171874997 0.5032499999999999 Q 3.0419326171875 0.4424999999999999 3.1206826171874997 0.40649999999999986 Q 3.1994326171875 0.37049999999999994 3.3104326171875 0.37049999999999994 Q 3.4754326171875 0.37049999999999994 3.5699326171875 0.4514999999999999 Q 3.6644326171875 0.5324999999999999 3.6794326171874996 0.6644999999999999 L 3.4139326171874997 0.6644999999999999 Q 3.4064326171875 0.6239999999999999 3.3786826171874997 0.60225 Q 3.3509326171875 0.5804999999999999 3.3044326171875 0.5804999999999999 Q 3.2684326171875 0.5804999999999999 3.2496826171874997 0.5939999999999999 Q 3.2309326171875 0.6074999999999999 3.2309326171875 0.6315 Q 3.2309326171875 0.6614999999999999 3.2654326171875 0.6772499999999999 Q 3.2999326171875 0.693 3.3764326171874997 0.7094999999999999 Q 3.4679326171874996 0.7289999999999999 3.5286826171875 0.7529999999999999 Q 3.5894326171874997 0.7769999999999999 3.6351826171874997 0.8302499999999999 Q 3.6809326171874996 0.8835 3.6809326171874996 0.9749999999999999 Q 3.6809326171874996 1.0485 3.6381826171875 1.107 Q 3.5954326171875 1.1655 3.5166826171874996 1.19925 Q 3.4379326171874998 1.2329999999999999 3.3314326171874997 1.2329999999999999 Q 3.2174326171875 1.2329999999999999 3.1281826171875 1.19475 M 4.6229223632812495 0.861 L 4.06642236328125 0.861 Q 4.07092236328125 0.9299999999999999 4.104672363281249 0.9637499999999999 Q 4.13842236328125 0.9974999999999999 4.19092236328125 0.9974999999999999 Q 4.26442236328125 0.9974999999999999 4.2959223632812495 0.9315 L 4.60942236328125 0.9315 Q 4.58992236328125 1.0185 4.53367236328125 1.0867499999999999 Q 4.477422363281249 1.1549999999999998 4.39192236328125 1.194 Q 4.30642236328125 1.2329999999999999 4.20292236328125 1.2329999999999999 Q 4.07842236328125 1.2329999999999999 3.9816723632812496 1.1804999999999999 Q 3.88492236328125 1.128 3.8301723632812497 1.0305 Q 3.77542236328125 0.9329999999999999 3.77542236328125 0.8009999999999999 Q 3.77542236328125 0.6689999999999999 3.8294223632812496 0.5722499999999999 Q 3.88342236328125 0.4754999999999999 3.9801723632812496 0.42299999999999993 Q 4.07692236328125 0.37049999999999994 4.20292236328125 0.37049999999999994 Q 4.32742236328125 0.37049999999999994 4.42342236328125 0.4214999999999999 Q 4.51942236328125 0.4724999999999999 4.573422363281249 0.5677499999999999 Q 4.62742236328125 0.6629999999999999 4.62742236328125 0.7919999999999999 Q 4.62742236328125 0.8264999999999999 4.6229223632812495 0.861 M 4.32742236328125 0.7184999999999999 Q 4.32742236328125 0.6644999999999999 4.291422363281249 0.6337499999999999 Q 4.25542236328125 0.6029999999999999 4.2014223632812495 0.6029999999999999 Q 4.14742236328125 0.6029999999999999 4.11292236328125 0.6322499999999999 Q 4.07842236328125 0.6614999999999999 4.06792236328125 0.7184999999999999 L 4.32742236328125 0.7184999999999999 M 4.769214111328124 0.26024999999999987 Q 4.721964111328124 0.2174999999999998 4.721964111328124 0.1529999999999998 Q 4.721964111328124 0.08699999999999997 4.769214111328124 0.04349999999999987 Q 4.816464111328124 0 4.894464111328125 0 Q 4.970964111328125 0 5.018214111328125 0.04349999999999987 Q 5.065464111328125 0.08699999999999997 5.065464111328125 0.1529999999999998 Q 5.065464111328125 0.2174999999999998 5.018214111328125 0.26024999999999987 Q 4.970964111328125 0.30299999999999994 4.894464111328125 0.30299999999999994 Q 4.816464111328124 0.30299999999999994 4.769214111328124 0.26024999999999987 M 5.039964111328125 0.3809999999999999 L 5.039964111328125 1.2225 L 4.745964111328124 1.2225 L 4.745964111328124 0.3809999999999999 L 5.039964111328125 0.3809999999999999 M 5.500439208984375 0.11249999999999982 L 5.500439208984375 1.2225 L 5.206439208984374 1.2225 L 5.206439208984374 0.11249999999999982 L 5.500439208984375 0.11249999999999982 M 5.684164306640625 1.1917499999999999 Q 5.636914306640625 1.149 5.636914306640625 1.083 Q 5.636914306640625 1.017 5.684164306640625 0.9734999999999999 Q 5.731414306640625 0.9299999999999999 5.809414306640624 0.9299999999999999 Q 5.8859143066406245 0.9299999999999999 5.9331643066406246 0.9734999999999999 Q 5.980414306640625 1.017 5.980414306640625 1.083 Q 5.980414306640625 1.1475 5.9331643066406246 1.1909999999999998 Q 5.8859143066406245 1.2345 5.809414306640624 1.2345 Q 5.731414306640625 1.2345 5.684164306640625 1.1917499999999999 M 6.140202392578124 0.26024999999999987 Q 6.092952392578124 0.2174999999999998 6.092952392578124 0.1529999999999998 Q 6.092952392578124 0.08699999999999997 6.140202392578124 0.04349999999999987 Q 6.187452392578124 0 6.2654523925781245 0 Q 6.341952392578125 0 6.389202392578125 0.04349999999999987 Q 6.436452392578125 0.08699999999999997 6.436452392578125 0.1529999999999998 Q 6.436452392578125 0.2174999999999998 6.389202392578125 0.26024999999999987 Q 6.341952392578125 0.30299999999999994 6.2654523925781245 0.30299999999999994 Q 6.187452392578124 0.30299999999999994 6.140202392578124 0.26024999999999987 M 6.410952392578125 0.3809999999999999 L 6.410952392578125 1.2225 L 6.116952392578124 1.2225 L 6.116952392578124 0.3809999999999999 L 6.410952392578125 0.3809999999999999 M 7.926677490234375 0.4694999999999999 Q 8.017427490234375 0.5654999999999999 8.017427490234375 0.732 L 8.017427490234375 1.2225 L 7.723427490234375 1.2225 L 7.723427490234375 0.7709999999999999 Q 7.723427490234375 0.7034999999999999 7.685927490234374 0.6659999999999999 Q 7.648427490234375 0.6285 7.583927490234375 0.6285 Q 7.519427490234374 0.6285 7.481927490234375 0.6659999999999999 Q 7.444427490234375 0.7034999999999999 7.444427490234375 0.7709999999999999 L 7.444427490234375 1.2225 L 7.1504274902343745 1.2225 L 7.1504274902343745 0.7709999999999999 Q 7.1504274902343745 0.7034999999999999 7.113677490234375 0.6659999999999999 Q 7.076927490234374 0.6285 7.012427490234375 0.6285 Q 6.946427490234375 0.6285 6.908927490234374 0.6659999999999999 Q 6.871427490234375 0.7034999999999999 6.871427490234375 0.7709999999999999 L 6.871427490234375 1.2225 L 6.577427490234374 1.2225 L 6.577427490234374 0.3809999999999999 L 6.871427490234375 0.3809999999999999 L 6.871427490234375 0.4919999999999999 Q 6.910427490234374 0.43799999999999994 6.972677490234375 0.40574999999999994 Q 7.034927490234375 0.37349999999999994 7.115927490234375 0.37349999999999994 Q 7.208927490234375 0.37349999999999994 7.281677490234374 0.4139999999999999 Q 7.354427490234374 0.4544999999999999 7.396427490234375 0.5279999999999999 Q 7.441427490234375 0.45899999999999985 7.514927490234374 0.4162499999999999 Q 7.588427490234374 0.37349999999999994 7.676927490234375 0.37349999999999994 Q 7.835927490234375 0.37349999999999994 7.926677490234375 0.4694999999999999 M 9.525702392578125 0.4694999999999999 Q 9.616452392578125 0.5654999999999999 9.616452392578125 0.732 L 9.616452392578125 1.2225 L 9.322452392578125 1.2225 L 9.322452392578125 0.7709999999999999 Q 9.322452392578125 0.7034999999999999 9.284952392578125 0.6659999999999999 Q 9.247452392578124 0.6285 9.182952392578125 0.6285 Q 9.118452392578124 0.6285 9.080952392578125 0.6659999999999999 Q 9.043452392578125 0.7034999999999999 9.043452392578125 0.7709999999999999 L 9.043452392578125 1.2225 L 8.749452392578124 1.2225 L 8.749452392578124 0.7709999999999999 Q 8.749452392578124 0.7034999999999999 8.712702392578125 0.6659999999999999 Q 8.675952392578125 0.6285 8.611452392578125 0.6285 Q 8.545452392578124 0.6285 8.507952392578124 0.6659999999999999 Q 8.470452392578125 0.7034999999999999 8.470452392578125 0.7709999999999999 L 8.470452392578125 1.2225 L 8.176452392578124 1.2225 L 8.176452392578124 0.3809999999999999 L 8.470452392578125 0.3809999999999999 L 8.470452392578125 0.4919999999999999 Q 8.509452392578124 0.43799999999999994 8.571702392578125 0.40574999999999994 Q 8.633952392578124 0.37349999999999994 8.714952392578125 0.37349999999999994 Q 8.807952392578125 0.37349999999999994 8.880702392578124 0.4139999999999999 Q 8.953452392578125 0.4544999999999999 8.995452392578125 0.5279999999999999 Q 9.040452392578125 0.45899999999999985 9.113952392578124 0.4162499999999999 Q 9.187452392578125 0.37349999999999994 9.275952392578125 0.37349999999999994 Q 9.434952392578124 0.37349999999999994 9.525702392578125 0.4694999999999999 M 9.941227294921875 1.1804999999999999 Q 9.841477294921875 1.128 9.784477294921874 1.0305 Q 9.727477294921874 0.9329999999999999 9.727477294921874 0.8009999999999999 Q 9.727477294921874 0.6704999999999999 9.785227294921874 0.573 Q 9.842977294921875 0.4754999999999999 9.942727294921875 0.42299999999999993 Q 10.042477294921875 0.37049999999999994 10.168477294921875 0.37049999999999994 Q 10.294477294921874 0.37049999999999994 10.394227294921874 0.42299999999999993 Q 10.493977294921875 0.4754999999999999 10.551727294921875 0.573 Q 10.609477294921874 0.6704999999999999 10.609477294921874 0.8009999999999999 Q 10.609477294921874 0.9315 10.551727294921875 1.02975 Q 10.493977294921875 1.128 10.393477294921874 1.1804999999999999 Q 10.292977294921874 1.2329999999999999 10.166977294921875 1.2329999999999999 Q 10.040977294921875 1.2329999999999999 9.941227294921875 1.1804999999999999 M 10.269727294921875 0.9322499999999999 Q 10.310977294921875 0.8864999999999998 10.310977294921875 0.8009999999999999 Q 10.310977294921875 0.7154999999999999 10.269727294921875 0.6704999999999999 Q 10.228477294921875 0.6255 10.168477294921875 0.6255 Q 10.108477294921874 0.6255 10.067977294921874 0.6704999999999999 Q 10.027477294921875 0.7154999999999999 10.027477294921875 0.8009999999999999 Q 10.027477294921875 0.8879999999999999 10.066477294921874 0.9329999999999999 Q 10.105477294921874 0.978 10.166977294921875 0.978 Q 10.228477294921875 0.978 10.269727294921875 0.9322499999999999" fill="url(#gradient-dd031ce9-92d3-4972-9f46-3d42767eb831)" fill-rule="nonzero"></path></g><g></g></g><defs><clipPath id="SvgjsClipPath1001"><path d=" M -2.52487487544529 -0.6709188168880104 h 2.12487487544529 v 2.5643376337760206 h -2.12487487544529 Z"></path></clipPath><clipPath id="SvgjsClipPath100063a3e32c-fa49-43b8-9940-52140e91a7dc"><path d=" M -2.52487487544529 -0.6709188168880104 L -0.3999999999999999 -0.6709188168880104 L -0.3999999999999999 1.8934188168880102 L -2.52487487544529 1.8934188168880102 Z"></path></clipPath><linearGradient id="gradient-dd031ce9-92d3-4972-9f46-3d42767eb831" y1="0" x1="0" y2="1" x2="1"><stop stop-color="#51a8db" offset="0"></stop><stop stop-color="#3361e1" offset="1"></stop></linearGradient></defs></svg>