<svg xmlns="http://www.w3.org/2000/svg" version="1.1" xmlns:xlink="http://www.w3.org/1999/xlink" viewBox="0 0 7.288704160643142 5.908843773898365"><g transform="matrix(1,0,0,1,2.4590010328394407,1.929349351042172)"><rect width="7.288704160643142" height="7.288704160643142" x="-2.4590010328394403" y="-2.6192795444145602" fill="#ffffff"></rect><g><path d=" M -1.2178624300737815 1.5853403806824016 Q -1.2218172384693782 1.6882644278752423 -1.2666659822729613 1.7615964821164851 Q -1.3115147260765445 1.834928536357728 -1.3860351395648633 1.8730953802609114 Q -1.4605555530531822 1.911262224164095 -1.5534869743049704 1.9076913777486535 Q -1.6254338810805484 1.9049268514915374 -1.6883115935588504 1.8744901421835982 Q -1.7511893060371524 1.844053432875659 -1.7992902201386631 1.7936693871607794 Q -1.8473911342401736 1.7432853414458997 -1.8734511576971968 1.6792375063738272 Q -1.89951118115422 1.6151896713017546 -1.8967850510951192 1.5442420271202817 Q -1.8948268449963286 1.4932796348209139 -1.8869877712041019 1.458555019314331 Q -1.8791486974118752 1.4238304038077478 -1.867600544728344 1.3967538425490162 Q -1.8560523920448126 1.3696772812902847 -1.840987622182905 1.3422354754275547 L -1.6628885032440772 1.3430744231096825 L -1.6635796348083565 1.361061149803577 L -1.7961331097051085 1.4250187630548241 Q -1.8214208826961615 1.4580721825020306 -1.8334686666767457 1.4851295456617546 Q -1.8455164506573296 1.5121869088214783 -1.8468219213898567 1.5461618370210568 Q -1.8494712590529265 1.615110956014319 -1.81560959655599 1.671452661818666 Q -1.7817479340590534 1.7277943676230128 -1.7195042395708584 1.7617092979113125 Q -1.6572605450826634 1.7956242281996122 -1.5743217497719275 1.798811112634899 Q -1.4813903285201393 1.8023819590503405 -1.4137682819726674 1.7744577970981612 Q -1.3461462354251954 1.746533635145982 -1.3091754423347055 1.6959158471830516 Q -1.2722046492442156 1.6452980592201212 -1.2697856887692391 1.5823445157914904 Q -1.267789086472433 1.5303828608980172 -1.2804156977603562 1.494371492035064 Q -1.2930423090482794 1.4583601231721106 -1.310953204791845 1.4296512427748689 L -1.4202980700645944 1.358400274792081 L -1.419645334698331 1.3414128106922916 L -1.2592248114235718 1.3595857497020505 Q -1.2389304670659382 1.4043980201990225 -1.2268606006492397 1.454898696676502 Q -1.2147907342325415 1.5053993731539816 -1.2178624300737815 1.5853403806824016 M -1.066423190602195 0.8682142987531279 Q -1.091851056443802 0.9355746998708562 -1.1374275005793701 0.9841060066733465 Q -1.183003944714938 1.0326373134758369 -1.2416409745295178 1.0591363461850525 Q -1.3002780043440978 1.0856353788942679 -1.3671119142793662 1.0871281892520952 Q -1.4339458242146346 1.0886209996099228 -1.503177347585633 1.0624868041616045 Q -1.5724088709566315 1.0363526087132862 -1.6215845407241172 0.9910673627393579 Q -1.6707602104916028 0.9457821167654297 -1.6972592432008184 0.8871450869508498 Q -1.723758275910034 0.82850805713627 -1.7258954492328566 0.7619653453626414 Q -1.7280326225556797 0.6954226335890127 -1.7026047567140727 0.6280622324712845 Q -1.6771768908724656 0.5607018313535562 -1.6316004467368974 0.5121705245510659 Q -1.5860240026013295 0.4636392177485755 -1.5273869727867497 0.43714018503936003 Q -1.46874994297217 0.41064115233014453 -1.4017394506352236 0.40868056140899944 Q -1.3347289582982775 0.40671997048785447 -1.265497434927279 0.43285416593617276 Q -1.1962659115562806 0.45898836138449106 -1.1472668241904727 0.5047413879217368 Q -1.0982677368246647 0.5504944144589827 -1.0717687041154491 0.6091314442735626 Q -1.0452696714062337 0.6677684740881424 -1.043132498083411 0.734311185861771 Q -1.040995324760588 0.8008538976353997 -1.066423190602195 0.8682142987531279 M -1.1061379508668376 0.831844836052643 Q -1.084594897862143 0.7747756073279011 -1.0982872729601065 0.720438521795305 Q -1.1119796480580701 0.6661014362627089 -1.1570599085156599 0.6212932883755681 Q -1.2021401689732496 0.5764851404884274 -1.2760494979774235 0.5485851210233308 Q -1.3667989272610297 0.5143281350978326 -1.4459283826494562 0.5186616429068714 Q -1.525057838037883 0.5229951507159103 -1.5819043472878482 0.5603244205466154 Q -1.6387508565378137 0.5976536903773206 -1.6624128983626423 0.6603362858618732 Q -1.6839559513673372 0.7174055145866152 -1.6710845216360468 0.7725015788441686 Q -1.6582130919047562 0.827597643101722 -1.6133094138488444 0.8728735715521804 Q -1.5684057357929326 0.9181495000026387 -1.4944964067887585 0.9460495194677352 Q -1.4037469775051525 0.9803065053932334 -1.3239731591517305 0.9756817994225548 Q -1.2441993407983085 0.9710570934518763 -1.1871762491466653 0.9332600430578535 Q -1.130153157495022 0.8954629926638308 -1.1061379508668376 0.831844836052643 M -0.8857800309810966 0.4254260228394316 L -0.898014652660506 0.4151151532174392 L -0.8764024293976929 0.32740020691044813 L -1.2939088942075379 -0.024458218940043075 L -1.3775791242259496 0.009648856699273678 L -1.389813745905359 -0.0006620129227187244 L -1.2886383377395583 -0.12071423815192328 L -0.6816652204755013 -0.11005427010538349 L -0.999765384140145 -0.3781368802771863 L -1.0959634976752817 -0.324509247919595 L -1.108198119354691 -0.33482011754158736 L -0.9451574934569359 -0.5282800728472481 L -0.9329228717775265 -0.5179692032252557 L -0.9546553295439283 -0.43166335012460233 L -0.48821037801644573 -0.0385614457861414 L -0.5159208401255504 -0.0056809000227286965 L -1.1761557733898278 -0.01676390040687914 L -0.8305277109465129 0.27451816641440663 L -0.7343295974113764 0.22089053405681527 L -0.722094975731967 0.2312014036788077 L -0.8857800309810966 0.4254260228394316 M -0.1495067169814025 -0.2841570779443151 Q -0.20201444177229996 -0.24934416601090498 -0.24573426235001203 -0.2347555646847783 Q -0.28945408292772407 -0.2201669633586516 -0.34133598831884493 -0.21336491271294308 L -0.4408472219207759 -0.34535928527110155 L -0.4275119267357861 -0.3542006597303803 L -0.32310689793167063 -0.29264101417899796 Q -0.2779109485070626 -0.2878112982858762 -0.2423898294907952 -0.29576429167403934 Q -0.2068687104745278 -0.3037172850622025 -0.1785312082064244 -0.3225052057881699 Q -0.13019076316083625 -0.3545551882030554 -0.11884756597841145 -0.39807049444902626 Q -0.10750436879598668 -0.44158580069499714 -0.13623883578864268 -0.4849255100462141 Q -0.15889485784054452 -0.5190972039577506 -0.18785214753895968 -0.5292940354912252 Q -0.2168094372373748 -0.5394908670246998 -0.2580060045003788 -0.5355738725461765 Q -0.2992025717633829 -0.5316568780676532 -0.3577429705599897 -0.5240396798469007 Q -0.4357062636693495 -0.5131435829519545 -0.488099561122635 -0.5233999167009874 Q -0.5404928585759204 -0.5336562504500202 -0.5780687000278553 -0.590331254986227 Q -0.5979617925612324 -0.6203356691524542 -0.6018879412267648 -0.6579266967608628 Q -0.605814089892297 -0.6955177243692714 -0.5954539378686216 -0.7341818841305585 Q -0.5850937858449461 -0.7728460438918456 -0.563097290188936 -0.8066270175139176 Q -0.5411007945329256 -0.8404079911359895 -0.5077625565704511 -0.8625114272841865 Q -0.46859012696454344 -0.8884829647583179 -0.4283399881122528 -0.9019709713705393 Q -0.3880898492599622 -0.9154589779827605 -0.34314730731968424 -0.9200598392006584 L -0.2463990032362779 -0.7922327463878092 L -0.2597342984212677 -0.7833913719285304 L -0.3622006994689115 -0.843836691485494 Q -0.4026859374315142 -0.846990341293483 -0.43043423704787687 -0.8417911232368356 Q -0.4581825366642395 -0.836591905180188 -0.48568658298328105 -0.8183565703579256 Q -0.5215251887929412 -0.7945953764986139 -0.5292536921337616 -0.7546764557202296 Q -0.5369821954745819 -0.7147575349418451 -0.5126684157115653 -0.6780854731831231 Q -0.48559170643002414 -0.6372461316790917 -0.44469889467989937 -0.6307632351683596 Q -0.40380608292977466 -0.6242803386576277 -0.3294483294750103 -0.6351855897395827 Q -0.2634159813238557 -0.644170521439084 -0.21585094488773154 -0.6439110819852891 Q -0.16828590845160746 -0.6436516425314941 -0.13421491059716956 -0.6266467283828461 Q -0.10014391274273166 -0.6096418142341982 -0.07196203165378057 -0.5671355608320431 Q -0.04599049417964918 -0.5279631312261355 -0.04276652062750924 -0.4869069989858098 Q -0.039542547075369305 -0.44585086674548424 -0.05350823875364025 -0.40719586117120604 Q -0.06747393043191113 -0.36854085559692795 -0.09265466067448141 -0.3368480989410151 Q -0.11783539091705164 -0.3051553422851022 -0.1495067169814025 -0.2841570779443151 M 0.14485031966772677 -0.4791422088113848 L 0.1396620646688092 -0.4942776642081083 L 0.2033146701174281 -0.5583818436319372 L 0.02561693640450169 -1.0767711909697177 L -0.06397694403870499 -1.0883442885295063 L -0.06916519903762255 -1.1034797439262298 L 0.4057097140345778 -1.2662612445172683 L 0.46148345527294155 -1.1035550990024905 L 0.446347999876218 -1.0983668440035728 L 0.34692109764744405 -1.187967575659011 L 0.1246190965080674 -1.1117650803624093 L 0.20147012367953376 -0.8875711472984423 L 0.35850047342054026 -0.9413992929122119 L 0.3795063987532793 -1.03739799655406 L 0.39464185415000275 -1.0425862515529776 L 0.46630462632255154 -0.8335277738857341 L 0.4511691709258281 -0.8283395188868166 L 0.37633509997931935 -0.8893711649859748 L 0.21930475023831286 -0.8355430193722052 L 0.3029653620958585 -0.5914838011000385 L 0.5508084442172061 -0.6764414767073136 L 0.5704390939876207 -0.8227105356008175 L 0.5855745493843443 -0.827898790599735 L 0.6462122796841933 -0.6510031556505289 L 0.14485031966772677 -0.4791422088113848 M 0.7960842645600622 -0.6695624715087838 L 0.7944033297590932 -0.6854739283306744 L 0.8717472089688606 -0.733867361240367 L 0.8141751920356742 -1.2788347573901229 L 0.7284266388210621 -1.3099986085898836 L 0.7267457040200932 -1.3259100654117744 L 0.9922681397353939 -1.3539606649029436 L 0.9939490745363628 -1.338049208081053 L 0.9175996613779637 -1.289760833596421 L 0.97517167831115 -0.7447934374466652 L 1.0599257654743939 -0.7135245278218437 L 1.0616067002753629 -0.6976130709999531 L 0.7960842645600622 -0.6695624715087838 M 1.202988405579867 -0.7106078535601411 L 1.204823771554647 -0.7265022372140806 L 1.2898775037396661 -0.7569466561016054 L 1.3527387883758828 -1.3013292962490337 L 1.276861886064764 -1.3503567956312066 L 1.278697252039544 -1.3662511792851462 L 1.553868769048372 -1.3344764058467664 L 1.5520334030735918 -1.3185820221928268 L 1.4570456811048609 -1.2892847070395397 L 1.3940696860952202 -0.7439086679137401 L 1.6295052439691995 -0.7167223094123105 L 1.7197667556624414 -0.8794424971790739 L 1.735661139316381 -0.8776071312042939 L 1.709621884549189 -0.652105563114027 L 1.202988405579867 -0.7106078535601411 M 1.9079083710416946 -0.5800839391363456 Q 1.8831159454764046 -0.5879156461399018 1.870721574219753 -0.611756358401751 Q 1.8583272029631013 -0.6355970706636002 1.8661589099666576 -0.6603894962288903 Q 1.8739906169702136 -0.6851819217941804 1.897831329232063 -0.697576293050832 Q 1.9216720414939121 -0.7099706643074837 1.9464644670592022 -0.7021389573039274 Q 1.9712568926244922 -0.6943072503003712 1.9836512638811439 -0.670466538038522 Q 1.9960456351377955 -0.6466258257766728 1.9882139281342393 -0.6218334002113827 Q 1.9803822211306832 -0.5970409746460926 1.9565415088688338 -0.584646603389441 Q 1.9327007966069847 -0.5722522321327893 1.9079083710416946 -0.5800839391363456 M 2.1054473996599885 -0.5174650729339386 L 2.1123644554301944 -0.5318926278020326 L 2.2035983135546906 -0.5325116041499632 L 2.4405074736842374 -1.0266553583821834 L 2.38385889441077 -1.0981741563747227 L 2.3907759501809758 -1.1126017112428168 L 2.6315357720422945 -0.9971733430775084 L 2.6246187162720886 -0.9827457882094144 L 2.5342865803268486 -0.981694495875846 L 2.297377420197302 -0.48755074164362583 L 2.353124277291513 -0.4164642596367242 L 2.3462072215213077 -0.4020367047686302 L 2.1054473996599885 -0.5174650729339386 M 2.485608195750371 -0.35947680426267137 L 2.496350171335774 -0.37133471135130247 L 2.582494645742437 -0.3472696011458659 L 2.965970812596314 -0.7393040759756411 L 2.929089500958429 -0.8266869624687594 L 2.9398314765438314 -0.8385448695573905 L 3.0873141959586814 -0.7049415482139421 L 2.9062248090961864 -0.1713952672169083 L 3.4185944752473136 -0.40483760529674917 L 3.560148241117848 -0.2766052717460023 L 3.5494062655324448 -0.2647473646573712 L 3.461570315582848 -0.2943926998123645 L 3.104242557642207 0.12537732461186074 L 3.1307482005775396 0.20336098246775164 L 3.120006224992137 0.21521888955638274 L 2.936949784311394 0.04938964145672575 L 2.9476917598967964 0.037531734368094594 L 3.0294592648641743 0.05898109639613219 L 3.3503497017626556 -0.3101399237410336 L 2.80686153493121 -0.061709626647070304 L 2.7712878136653165 -0.09393555340327897 L 2.9624217189236965 -0.6534646681602152 L 2.628513781429834 -0.3042319530853026 L 2.6638431089626886 -0.2196043062074868 L 2.653101133377286 -0.20774639911885567 L 2.485608195750371 -0.35947680426267137 M 3.2016402192032922 0.32756019660760227 L 3.2161978772220094 0.32092132674820006 L 3.2857863715658135 0.37711244219328066 L 3.793099675397343 0.16883807565832257 L 3.7938098949498498 0.07399348915921217 L 3.8083675529685665 0.06735461929980996 L 3.8909384968448815 0.2484154909076052 L 3.513488350146712 0.6667411855015788 L 4.076411923541929 0.6551200618055171 L 4.155663432488543 0.8289021044039537 L 4.141105774469826 0.8355409742633559 L 4.0721721941734685 0.7735558025887883 L 3.5778966453795094 1.0176493950168377 L 3.571377414700026 1.0997560307495706 L 3.5568197566813087 1.1063949006089728 L 3.454332203226788 0.8816610549450259 L 3.468889861245505 0.8750221850856237 L 3.5354938551320756 0.927078961766068 L 3.976262984666994 0.7150799654263906 L 3.3788300134735776 0.7281507317010489 L 3.358913403895371 0.6844777576448973 L 3.7558704512118295 0.24626536326769694 L 3.3110170680110396 0.4348481500081923 L 3.3099719139860655 0.5265482462625806 L 3.2954142559673483 0.5331871161219828 L 3.2016402192032922 0.32756019660760227 M 3.5822849646793995 1.583546255183745 Q 3.5783136917637943 1.5116558595009433 3.600382744619374 1.4488429873642734 Q 3.6224517974749535 1.3860301152276036 3.6653729097792236 1.3380897552105548 Q 3.7082940220834937 1.2901493951935061 3.768820726381321 1.2617677450152067 Q 3.829347430679148 1.2333860948369073 3.9032347817975834 1.2293045087847576 Q 3.9771221329160182 1.225222922732608 4.040406665627461 1.2467651584451431 Q 4.103691198338902 1.2683073941576781 4.151631558355951 1.3112285064619482 Q 4.199571918373 1.354149618766218 4.2284252291260715 1.414149505921001 Q 4.2572785398791435 1.4741493930757839 4.261249812794748 1.5460397887585855 Q 4.265221085710353 1.6179301844413871 4.243152032854773 1.680743056578057 Q 4.221082979999194 1.7435559287147269 4.178161867694924 1.7914962887317756 Q 4.1352407553906545 1.8394366487488243 4.0747416293769625 1.868317537786032 Q 4.014242503363271 1.8971984268232398 3.9403551522448366 1.9012800128753895 Q 3.8664678011264018 1.9053615989275392 3.8031556901308234 1.883320124356096 Q 3.739843579135245 1.8612786497846523 3.6919032191181964 1.8183575374803824 Q 3.6439628591011477 1.7754364251761123 3.615109548348076 1.7154365380213294 Q 3.5862562375950047 1.6554366508665466 3.5822849646793995 1.583546255183745 M 3.63331198193568 1.600757981126464 Q 3.6366765326002897 1.661665121913282 3.6711650217109493 1.7058300867481364 Q 3.705653510821609 1.7499950515829907 3.7649992892300563 1.7727563912864315 Q 3.824345067638504 1.7955177309898724 3.9032248073460227 1.7911603620963614 Q 4.000077145974242 1.7858101749739488 4.070701770331238 1.7498600368040735 Q 4.141326394688234 1.7139098986341983 4.178231892145926 1.6567873614233886 Q 4.215137389603617 1.599664824212579 4.211441899529373 1.5327668171188609 Q 4.208077348864764 1.4718596763320428 4.17403294204474 1.4266686554952357 Q 4.139988535224717 1.3814776346584285 4.080615178532133 1.3582170560960793 Q 4.021241821839549 1.33495647753373 3.942362082132031 1.3393138464272412 Q 3.845509743503812 1.3446640335496536 3.7744134585720435 1.3811409888625734 Q 3.7033171736402744 1.4176179441754932 3.6664392544667193 1.4752397202452112 Q 3.629561335293164 1.5328614963149292 3.63331198193568 1.600757981126464" fill="#1c3423" fill-rule="nonzero"></path></g><g clip-path="url(#SvgjsClipPath1004)"><g clip-path="url(#SvgjsClipPath1000f10a25eb-1dcf-4bdc-b1ee-ddaabffc78be)"><path d=" M 1.7060087915252993 0.2396117294976141 L 1.280207488215412 0 L 1.280207488215412 3.422192687949195 C 1.429482329609372 3.335972663275332 1.5685592263630992 3.2417587290290584 1.7236524919386926 3.14676253363177 C 1.7236524919386926 2.1764332400554656 1.7164808130651579 1.2099524429447364 1.7060087915252993 0.23989151633264832 Z M 1.0813418577954597 0.8441796905882482 L 0.6310677713231767 1.1072478347454804 L 0.6310677713231767 3.1693339083030136 L 1.0915740620481453 3.433212863288304 C 1.0915740620481453 2.5631157758792176 1.0849619568446798 1.7142539382556996 1.0813932472141385 0.84391703355944 Z M 0.4423201464477329 1.2176722756175222 L -0.000022839741636113798 1.4762923800912484 C 0.0024666920966288767 1.923032016545443 0.011311382044960426 2.3695147059062385 0.013760944335364107 2.816237212554207 L 0.12808527109166057 2.8815131941483525 L 0.44232014644773204 3.0616616562980457 L 0.44232014644773204 1.2176722756175218 Z M 1.9125942546180372 3.030793745477721 L 2.364821139000152 2.7534507627983262 C 2.35712985600441 2.034027450958371 2.344716456425538 1.3140674051899828 2.3369966237527517 0.594923880185062 L 1.9123144677830037 0.3558203349388366 L 1.9123144677830037 3.030770905736085 Z" fill="#67a97b" transform="matrix(1,0,0,1,0,0)" fill-rule="nonzero"></path></g></g><g transform="matrix(-0.47486135815290137,-0.8800606175333503,0.8800606175333503,-0.47486135815290137,-4.413801895808573,2.7421245512836903)"><g clip-path="url(#SvgjsClipPath1005)"><path d=" M -1.3887780061728714 2.7806818579199035 C -1.3371508096211473 2.7806818579199035 -1.2943866734142508 2.7380092113681793 -1.2943866734142508 2.686290525161283 C -1.2943866734142508 2.6346635365405935 -1.3371508096211473 2.591899504299214 -1.3888694958280439 2.591899504299214 C -1.4404967963452853 2.591899504299214 -1.4831693389314922 2.6346635365405935 -1.4831693389314922 2.686290525161283 C -1.4831693389314922 2.7380092113681793 -1.44040541065563 2.7806818579199035 -1.3887780061728714 2.7806818579199035 Z M -1.3887780061728714 2.7621333699888693 C -1.4308109528970094 2.7621333699888693 -1.4645286335866645 2.7283237837819727 -1.4645286335866645 2.686290525161283 C -1.4645286335866645 2.644258306195766 -1.4309023385866646 2.6105402096440415 -1.3888694958280439 2.6105402096440415 C -1.3468362372073543 2.6105402096440415 -1.3130276906556302 2.644258306195766 -1.3129362010004577 2.686290525161283 C -1.3129362010004577 2.7283237837819727 -1.3467447475521819 2.7621333699888693 -1.3887780061728714 2.7621333699888693 Z M -1.3886865165176991 2.722109764816455 C -1.3689497027245956 2.722109764816455 -1.3528672768625267 2.7060283786095587 -1.3528672768625267 2.6861085855061106 C -1.3528672768625267 2.6663707320578345 -1.3689497027245956 2.650288306195766 -1.3886865165176991 2.650288306195766 C -1.4086063096211474 2.650288306195766 -1.4246887354832163 2.6663707320578345 -1.4246887354832163 2.6861085855061106 C -1.4246887354832163 2.7060283786095587 -1.4086063096211474 2.722109764816455 -1.3886865165176991 2.722109764816455 Z" fill="#67a97b" transform="matrix(1,0,0,1,0,0)" fill-rule="nonzero"></path></g></g><g transform="matrix(0.47486135815290137,-0.8800606175333503,-0.8800606175333503,-0.47486135815290137,4.336715832109343,7.267743237954395)"><g clip-path="url(#SvgjsClipPath1006)"><path d=" M 3.7536162749792497 2.7806818579199035 C 3.8052434715309738 2.7806818579199035 3.84800760773787 2.7380092113681793 3.84800760773787 2.686290525161283 C 3.84800760773787 2.6346635365405935 3.8052434715309738 2.591899504299214 3.753524785324077 2.591899504299214 C 3.701897484806836 2.591899504299214 3.6592249422206287 2.6346635365405935 3.6592249422206287 2.686290525161283 C 3.6592249422206287 2.7380092113681793 3.701988870496491 2.7806818579199035 3.7536162749792497 2.7806818579199035 Z M 3.7536162749792497 2.7621333699888693 C 3.7115833282551116 2.7621333699888693 3.6778656475654565 2.7283237837819727 3.6778656475654565 2.686290525161283 C 3.6778656475654565 2.644258306195766 3.7114919425654564 2.6105402096440415 3.753524785324077 2.6105402096440415 C 3.7955580439447667 2.6105402096440415 3.829366590496491 2.644258306195766 3.8294580801516633 2.686290525161283 C 3.8294580801516633 2.7283237837819727 3.7956495335999394 2.7621333699888693 3.7536162749792497 2.7621333699888693 Z M 3.753707764634422 2.722109764816455 C 3.7734445784275255 2.722109764816455 3.7895270042895945 2.7060283786095587 3.7895270042895945 2.6861085855061106 C 3.7895270042895945 2.6663707320578345 3.7734445784275255 2.650288306195766 3.753707764634422 2.650288306195766 C 3.733787971530974 2.650288306195766 3.7177055456689048 2.6663707320578345 3.7177055456689048 2.6861085855061106 C 3.7177055456689048 2.7060283786095587 3.733787971530974 2.722109764816455 3.753707764634422 2.722109764816455 Z" fill="#67a97b" transform="matrix(1,0,0,1,0,0)" fill-rule="nonzero"></path></g></g></g><defs><clipPath id="SvgjsClipPath1004"><path d=" M 0 0 h 2.364838268806378 v 3.433212863288304 h -2.364838268806378 Z"></path></clipPath><clipPath id="SvgjsClipPath1000f10a25eb-1dcf-4bdc-b1ee-ddaabffc78be"><path d=" M 0 0 L 2.364838268806378 0 L 2.364838268806378 3.433212863288304 L 0 3.433212863288304 Z"></path></clipPath><clipPath id="SvgjsClipPath1005"><path d=" M -1.5343297303108026 2.537186299299214 h 0.2911034482758621 v 0.3015 h -0.2911034482758621 Z"></path></clipPath><clipPath id="SvgjsClipPath1006"><path d=" M 3.6080645508413185 2.537186299299214 h 0.2911034482758621 v 0.3015 h -0.2911034482758621 Z"></path></clipPath></defs></svg>